<svg version="1.2" xmlns="http://www.w3.org/2000/svg" viewBox="0 0 31 32" width="31" height="32"><style>.a{fill:#fff}</style><path class="a" d="m7.1 24.3c0.7 0.7 1.2 1.7 1.2 2.8 0 1.1-0.5 2.1-1.2 2.9-0.7 0.7-1.7 1.2-2.9 1.2-1.1 0-2.1-0.5-2.8-1.2-0.7-0.8-1.2-1.8-1.2-2.9 0-1.1 0.5-2.1 1.2-2.8 0.7-0.7 1.7-1.2 2.8-1.2 1.2 0 2.2 0.5 2.9 1.2zm0 0zm-5.7 5.7zm-1.2-18.9v5.8c3.8 0 7.4 1.5 10.1 4.2 2.6 2.7 4.1 6.3 4.1 10.1h5.9c0-5.5-2.3-10.5-5.9-14.2-3.7-3.6-8.7-5.9-14.2-5.9zm0-10.3v5.8c13.6 0 24.6 11 24.6 24.6h5.8c0-8.4-3.4-16-8.9-21.5-5.5-5.5-13.1-8.9-21.5-8.9z"/></svg>