<svg version="1.2" xmlns="http://www.w3.org/2000/svg" viewBox="0 0 29 26" width="29" height="26"><style>.a{fill:#bdbdbd}</style><path class="a" d="m14.1 0c1 0 1.9 0.7 2.1 1.7l6.8 7.5h-3.4l-4.7-5.2q-0.4 0.2-0.8 0.2-0.5 0-0.9-0.2l-4.7 5.2h-3.4l6.8-7.5h0.1c0.2-1 1-1.7 2.1-1.7zm-12.4 10.9c-0.9 0-1.7 0.8-1.7 1.7v0.8c0 0.9 0.7 1.6 1.6 1.7l2.7 9.2c0.8 1.7 1.7 1.7 2.5 1.7h15.4c0.8 0 1.7 0 2.5-1.7l2.7-9.2c0.9-0.1 1.6-0.8 1.6-1.7v-0.8c0-0.9-0.8-1.7-1.7-1.7h-25.6zm4.8 4.2h0.4c1 0 1.9 0.7 2.1 1.6l1.2 5.2c0.2 0.9-0.4 1.6-1.4 1.6h-0.4c-0.9 0-1.9-0.7-2.1-1.6l-1.2-5.2c-0.2-0.9 0.5-1.6 1.4-1.6zm8 0c0.9 0 1.7 0.7 1.7 1.7v5c0 0.9-0.8 1.7-1.7 1.7-0.9 0-1.7-0.8-1.7-1.7v-5c0-1 0.8-1.7 1.7-1.7zm7.6 0h0.4c0.9 0 1.6 0.7 1.4 1.6l-1.2 5.2c-0.2 0.9-1.2 1.6-2.1 1.6h-0.4c-1 0-1.6-0.7-1.4-1.6l1.2-5.2c0.2-0.9 1.1-1.6 2.1-1.6z"/></svg>