<svg version="1.2" xmlns="http://www.w3.org/2000/svg" viewBox="0 0 44 32" width="44" height="32"><style>.a{fill:#fff}</style><path class="a" d="m44 14.8c-1 1.1-2.6 2-5.3 2-3.5 14.6-27.6 20.8-38.7 5.6 4.2 4.1 11.6 4.5 16.3-0.4-2.7 0.4-4.7-2.3-1.3-3.8-3.1 0.4-4.8-1.2-5.5-2.6 0.7-0.8 1.5-1.1 3-1.2-3.3-0.8-4.5-2.4-4.9-4.4 0.9-0.2 2.1-0.4 2.7-0.3-2.9-1.6-3.9-3.9-3.7-5.6 5.2 2 8.5 3.5 11.3 5 0.9 0.5 2 1.5 3.3 2.7 1.6-4.2 3.5-8.5 6.9-10.7-0.1 0.5-0.3 1-0.7 1.3 1-0.8 2.2-1.4 3.4-1.6-0.1 1-1.5 1.5-2.3 1.8 0.7-0.2 3.9-1.7 4.3-0.8 0.4 0.9-2.3 1.4-2.7 1.5q-0.5 0.2-1.1 0.4c4.2-0.4 8.2 3 9.4 7.3q0.1 0.5 0.2 1c1.5 0.6 4.3 0 5.2-0.5-0.6 1.5-2.3 2.6-4.8 2.8 1.2 0.5 3.4 0.8 5 0.5z"/></svg>